<svg xmlns="http://www.w3.org/2000/svg" viewBox="0 0 1200 675"><rect width="1200" height="675" fill="#fff"/><g fill="none" stroke="#151515" stroke-width="7" stroke-linecap="round" stroke-linejoin="round"><rect x="520" y="170" width="360" height="265" rx="12"/><path d="M565 240h185M565 295h95M565 350h160"/><path stroke="#ef9035" d="M750 295h90m-22-20 22 20-22 20"/><rect x="870" y="240" width="205" height="165" rx="12"/><path d="M905 290h130M905 335h115"/></g><g fill="#151515"><path d="M270 412c-36 0-55-23-55-58s19-58 55-58 55 23 55 58-19 58-55 58Z"/><circle cx="253" cy="342" r="7" fill="#fff"/><circle cx="281" cy="342" r="7" fill="#fff"/></g><g stroke="#151515" stroke-width="7" stroke-linecap="round"><path d="M246 412l-16 47m53-47 16 47m22-107 135-34"/></g><g font-family="Microsoft YaHei" font-size="30" font-weight="700"><text x="545" y="140" fill="#2b73d5">1. 补充原因...</text><text x="890" y="220" fill="#ef4c40">悬浮查看</text><text x="898" y="300" fill="#2b73d5">完整原因</text><text x="180" y="520" fill="#ef9035">小黑指向省略号</text></g></svg>
